<svg width="743" height="76" viewBox="0 0 743 76" fill="none" xmlns="http://www.w3.org/2000/svg">
<foreignObject x="-33" y="-33" width="808" height="141"><div xmlns="http://www.w3.org/1999/xhtml" style="backdrop-filter:blur(16px);clip-path:url(#bgblur_0_6823_3721_clip_path);height:100%;width:100%"></div></foreignObject><g data-figma-bg-blur-radius="32">
<mask id="path-1-outside-1_6823_3721" maskUnits="userSpaceOnUse" x="-1" y="-1" width="744" height="77" fill="black">
<rect fill="white" x="-1" y="-1" width="744" height="77"/>
<path d="M0 0H742V75H0V0Z"/>
</mask>
<path d="M0 0H742V75H0V0Z" fill="#0F0F10" fill-opacity="0.2"/>
<path d="M0 0V-1H-1V0H0ZM742 0H743V-1H742V0ZM742 75V76H743V75H742ZM0 75H-1V76H0V75ZM0 0V1H742V0V-1H0V0ZM742 0H741V75H742H743V0H742ZM742 75V74H0V75V76H742V75ZM0 75H1V0H0H-1V75H0Z" fill="#2C2C2D" mask="url(#path-1-outside-1_6823_3721)"/>
<path d="M50.7837 43.9585V31.6332C50.7593 31.2429 50.5641 31.0477 50.1982 31.0477H32V26.3518H50.1921C50.4848 26.3518 50.6556 26.3274 50.7044 26.2786C50.7532 26.2298 50.7776 26.0591 50.7776 25.7663V21.6559C50.7776 21.29 50.5824 21.0948 50.1921 21.0704H32V16.3745H49.6066C49.997 16.3745 50.3202 16.405 50.5763 16.466C50.8325 16.527 51.0947 16.6916 51.363 16.96L54.8819 20.4789C55.1503 20.7472 55.3149 21.0094 55.3759 21.2656C55.4369 21.5217 55.4674 21.8449 55.4674 22.2353V22.8207C55.4674 23.211 55.4003 23.5709 55.2661 23.9002C55.132 24.2295 54.8087 24.6503 54.2965 25.1687L50.7776 28.1021C50.6068 28.2729 50.5214 28.4558 50.5214 28.651C50.5214 28.8705 50.6068 29.0779 50.7776 29.273L54.2965 32.2065C54.8087 32.7187 55.132 33.1395 55.2661 33.475C55.4003 33.8043 55.4674 34.1641 55.4674 34.5544V41.0128C55.4674 41.6227 55.3149 42.1899 55.01 42.7204C54.7051 43.2449 54.2721 43.6535 53.7049 43.9463L42.5506 48.6422C41.8187 49.0081 41.032 49.2032 40.2026 49.2276H32V44.5317H50.1921C50.5824 44.5073 50.7776 44.3122 50.7776 43.9463L50.7837 43.9585Z" fill="#EAEAEA"/>
<path d="M78.7518 25.8577C79.0079 25.9186 79.2702 26.0833 79.5385 26.3516L83.0574 29.8705C83.3257 30.1389 83.4904 30.4011 83.5514 30.6573C83.6124 30.9134 83.6429 31.2366 83.6429 31.6269V41.0188C83.6429 41.6286 83.4904 42.1958 83.1855 42.7264C82.8805 43.2509 82.4475 43.6595 81.8804 43.9522L70.726 48.6481C69.9942 49.014 69.2075 49.2092 68.3781 49.2336H65.4447C65.0543 49.258 64.8592 49.4531 64.8592 49.819V58.6254H60.1633V25.7662H77.7699C78.1602 25.7662 78.4834 25.7967 78.7396 25.8577H78.7518ZM65.4568 44.5499H78.3676C78.7335 44.5499 78.9286 44.3547 78.953 43.9644V31.0537C78.953 30.6877 78.7579 30.4926 78.3676 30.4682H65.4568C65.0665 30.4926 64.8714 30.6877 64.8714 31.0537V43.9644C64.8958 44.3547 65.0909 44.5499 65.4568 44.5499Z" fill="#EAEAEA"/>
<path d="M93.0408 16.3745V25.1809C93.0408 25.5712 93.236 25.7663 93.6263 25.7663H111.818V30.4623H93.6263C93.236 30.4623 93.0408 30.6574 93.0408 31.0477V43.9585C93.0652 44.3488 93.2603 44.5439 93.6263 44.5439H111.818V49.2398H103.604C102.774 49.2154 101.987 49.0203 101.256 48.6544L90.1013 43.9585C89.5402 43.6657 89.1072 43.2571 88.8023 42.7326C88.4973 42.2082 88.3449 41.641 88.3449 41.025V16.3745H93.0408Z" fill="#EAEAEA"/>
<path d="M121.381 34.9934C121.491 35.1032 121.631 35.1581 121.802 35.1581H134.127C134.517 35.1581 134.841 35.1886 135.097 35.2496C135.353 35.3106 135.615 35.4752 135.883 35.7436L139.402 39.2624C139.671 39.5308 139.835 39.7808 139.896 40.0126C139.957 40.2443 139.988 40.5797 139.988 41.0188V43.3668C139.988 43.7571 139.957 44.0803 139.896 44.3365C139.835 44.5926 139.671 44.8549 139.402 45.1232L135.883 48.6421C135.615 48.9104 135.353 49.0751 135.097 49.1361C134.841 49.1971 134.517 49.2276 134.127 49.2276H116.52V44.5316H134.713C135.078 44.5316 135.274 44.3365 135.298 43.9462V40.4273C135.298 40.0614 135.103 39.8662 134.713 39.8418H122.387C121.997 39.8418 121.674 39.8113 121.418 39.7503C121.161 39.6894 120.899 39.5247 120.631 39.2563L117.112 35.7375C116.746 35.3715 116.551 34.7861 116.527 33.975C116.527 33.3407 116.679 32.7613 116.984 32.2491C117.289 31.7368 117.722 31.3343 118.283 31.0354L129.437 26.3395C130.169 25.9736 130.956 25.7785 131.785 25.7541H140V30.45H121.808C121.637 30.45 121.497 30.5049 121.387 30.6146C121.277 30.7244 121.222 30.8647 121.222 31.0354V34.5543C121.222 34.7251 121.277 34.8654 121.387 34.9751L121.381 34.9934Z" fill="#EAEAEA"/>
<path d="M378 15.5C382.694 15.5 386.5 19.3056 386.5 24V51C386.5 55.6944 382.694 59.5 378 59.5H318C313.306 59.5 309.5 55.6944 309.5 51V24L309.511 23.5625C309.738 19.0714 313.452 15.5 318 15.5H378Z" fill="#131314"/>
<path d="M378 15.5C382.694 15.5 386.5 19.3056 386.5 24V51C386.5 55.6944 382.694 59.5 378 59.5H318C313.306 59.5 309.5 55.6944 309.5 51V24L309.511 23.5625C309.738 19.0714 313.452 15.5 318 15.5H378Z" stroke="#5E5E64"/>
<path d="M326.8 44V32.8H329.04V37.312H333.68V32.8H335.92V44H333.68V39.328H329.04V44H326.8ZM341.471 44.208C338.895 44.208 337.039 42.256 337.039 39.856C337.039 37.456 338.895 35.488 341.471 35.488C344.047 35.488 345.903 37.456 345.903 39.856C345.903 42.256 344.047 44.208 341.471 44.208ZM339.199 39.856C339.199 41.152 340.095 42.24 341.471 42.24C342.847 42.24 343.743 41.152 343.743 39.856C343.743 38.56 342.847 37.456 341.471 37.456C340.095 37.456 339.199 38.56 339.199 39.856ZM346.859 44V35.68H348.987V36.896C349.419 35.968 350.251 35.488 351.531 35.488C352.699 35.488 353.691 36.048 354.235 37.056C354.795 36.048 355.595 35.488 357.051 35.488C358.843 35.488 360.219 36.816 360.219 38.912V44H358.059V39.44C358.059 38 357.371 37.376 356.395 37.376C355.387 37.376 354.699 37.84 354.699 39.44V44H352.539V39.44C352.539 38 351.819 37.376 350.747 37.376C349.835 37.376 349.019 38 349.019 39.44V44H346.859ZM365.405 44.208C362.829 44.208 361.101 42.256 361.101 39.856C361.101 37.456 362.909 35.472 365.405 35.472C367.901 35.472 369.629 37.456 369.629 39.856C369.629 40.096 369.613 40.352 369.565 40.624H363.341C363.581 41.6 364.317 42.288 365.405 42.288C366.333 42.288 367.053 41.808 367.437 41.168L369.117 42.432C368.445 43.472 367.053 44.208 365.405 44.208ZM363.341 39.008H367.453C367.213 38.08 366.429 37.328 365.373 37.328C364.349 37.328 363.581 38.016 363.341 39.008Z" fill="#FDFDFD"/>
<path d="M434.8 44V32.8H437.04V37.312H441.68V32.8H443.92V44H441.68V39.328H437.04V44H434.8ZM449.471 44.208C446.895 44.208 445.039 42.256 445.039 39.856C445.039 37.456 446.895 35.488 449.471 35.488C452.047 35.488 453.903 37.456 453.903 39.856C453.903 42.256 452.047 44.208 449.471 44.208ZM447.199 39.856C447.199 41.152 448.095 42.24 449.471 42.24C450.847 42.24 451.743 41.152 451.743 39.856C451.743 38.56 450.847 37.456 449.471 37.456C448.095 37.456 447.199 38.56 447.199 39.856ZM454.859 44V35.68H456.987V36.896C457.419 35.968 458.251 35.488 459.531 35.488C460.699 35.488 461.691 36.048 462.235 37.056C462.795 36.048 463.595 35.488 465.051 35.488C466.843 35.488 468.219 36.816 468.219 38.912V44H466.059V39.44C466.059 38 465.371 37.376 464.395 37.376C463.387 37.376 462.699 37.84 462.699 39.44V44H460.539V39.44C460.539 38 459.819 37.376 458.747 37.376C457.835 37.376 457.019 38 457.019 39.44V44H454.859ZM473.405 44.208C470.829 44.208 469.101 42.256 469.101 39.856C469.101 37.456 470.909 35.472 473.405 35.472C475.901 35.472 477.629 37.456 477.629 39.856C477.629 40.096 477.613 40.352 477.565 40.624H471.341C471.581 41.6 472.317 42.288 473.405 42.288C474.333 42.288 475.053 41.808 475.437 41.168L477.117 42.432C476.445 43.472 475.053 44.208 473.405 44.208ZM471.341 39.008H475.453C475.213 38.08 474.429 37.328 473.373 37.328C472.349 37.328 471.581 38.016 471.341 39.008Z" fill="#FDFDFD"/>
<path d="M542.8 44V32.8H545.04V37.312H549.68V32.8H551.92V44H549.68V39.328H545.04V44H542.8ZM557.471 44.208C554.895 44.208 553.039 42.256 553.039 39.856C553.039 37.456 554.895 35.488 557.471 35.488C560.047 35.488 561.903 37.456 561.903 39.856C561.903 42.256 560.047 44.208 557.471 44.208ZM555.199 39.856C555.199 41.152 556.095 42.24 557.471 42.24C558.847 42.24 559.743 41.152 559.743 39.856C559.743 38.56 558.847 37.456 557.471 37.456C556.095 37.456 555.199 38.56 555.199 39.856ZM562.859 44V35.68H564.987V36.896C565.419 35.968 566.251 35.488 567.531 35.488C568.699 35.488 569.691 36.048 570.235 37.056C570.795 36.048 571.595 35.488 573.051 35.488C574.843 35.488 576.219 36.816 576.219 38.912V44H574.059V39.44C574.059 38 573.371 37.376 572.395 37.376C571.387 37.376 570.699 37.84 570.699 39.44V44H568.539V39.44C568.539 38 567.819 37.376 566.747 37.376C565.835 37.376 565.019 38 565.019 39.44V44H562.859ZM581.405 44.208C578.829 44.208 577.101 42.256 577.101 39.856C577.101 37.456 578.909 35.472 581.405 35.472C583.901 35.472 585.629 37.456 585.629 39.856C585.629 40.096 585.613 40.352 585.565 40.624H579.341C579.581 41.6 580.317 42.288 581.405 42.288C582.333 42.288 583.053 41.808 583.437 41.168L585.117 42.432C584.445 43.472 583.053 44.208 581.405 44.208ZM579.341 39.008H583.453C583.213 38.08 582.429 37.328 581.373 37.328C580.349 37.328 579.581 38.016 579.341 39.008Z" fill="#FDFDFD"/>
<path d="M650.8 44V32.8H653.04V37.312H657.68V32.8H659.92V44H657.68V39.328H653.04V44H650.8ZM665.471 44.208C662.895 44.208 661.039 42.256 661.039 39.856C661.039 37.456 662.895 35.488 665.471 35.488C668.047 35.488 669.903 37.456 669.903 39.856C669.903 42.256 668.047 44.208 665.471 44.208ZM663.199 39.856C663.199 41.152 664.095 42.24 665.471 42.24C666.847 42.24 667.743 41.152 667.743 39.856C667.743 38.56 666.847 37.456 665.471 37.456C664.095 37.456 663.199 38.56 663.199 39.856ZM670.859 44V35.68H672.987V36.896C673.419 35.968 674.251 35.488 675.531 35.488C676.699 35.488 677.691 36.048 678.235 37.056C678.795 36.048 679.595 35.488 681.051 35.488C682.843 35.488 684.219 36.816 684.219 38.912V44H682.059V39.44C682.059 38 681.371 37.376 680.395 37.376C679.387 37.376 678.699 37.84 678.699 39.44V44H676.539V39.44C676.539 38 675.819 37.376 674.747 37.376C673.835 37.376 673.019 38 673.019 39.44V44H670.859ZM689.405 44.208C686.829 44.208 685.101 42.256 685.101 39.856C685.101 37.456 686.909 35.472 689.405 35.472C691.901 35.472 693.629 37.456 693.629 39.856C693.629 40.096 693.613 40.352 693.565 40.624H687.341C687.581 41.6 688.317 42.288 689.405 42.288C690.333 42.288 691.053 41.808 691.437 41.168L693.117 42.432C692.445 43.472 691.053 44.208 689.405 44.208ZM687.341 39.008H691.453C691.213 38.08 690.429 37.328 689.373 37.328C688.349 37.328 687.581 38.016 687.341 39.008Z" fill="#FDFDFD"/>
</g>
<defs>
<clipPath id="bgblur_0_6823_3721_clip_path" transform="translate(33 33)"><path d="M0 0H742V75H0V0Z"/>
</clipPath></defs>
</svg>
